<?xml version="1.0" encoding="utf-8"?>
<!-- Generator: Adobe Illustrator 15.0.0, SVG Export Plug-In . SVG Version: 6.00 Build 0)  -->
<!DOCTYPE svg PUBLIC "-//W3C//DTD SVG 1.1//EN" "http://www.w3.org/Graphics/SVG/1.1/DTD/svg11.dtd">
<svg version="1.1" id="Capa_1" xmlns="http://www.w3.org/2000/svg" xmlns:xlink="http://www.w3.org/1999/xlink" x="0px" y="0px"
	 width="800px" height="600px" viewBox="0 0 800 600" enable-background="new 0 0 800 600" xml:space="preserve">
<path fill="#86DAF1" d="M661.722,153.501L661.722,153.501c-12.206-21.912-27.156-42.179-44.484-60.314l-31.037,20.69h-0.001
	l31.037-20.69c-24.022-25.316-52.317-46.193-83.594-61.66l-40.555,20.277h-41.382l0.001-0.001h41.383l40.555-20.277
	C456.86-6.702,367.392-10.24,287.834,21.8l29.381,19.657l62.073,10.345L368.943,82.84h0l10.345-31.036l-62.073-10.346
	l-29.381-19.657c-74.28,29.909-133.509,88.278-164.494,162.116v0c-54.387,129.784-11.256,279.93,103.715,361.081
	c135.372,95.542,322.575,63.253,418.116-72.129l-0.001-0.001C711.764,378.496,718.198,254.257,661.722,153.501z M337.905,93.187
	L337.905,93.187l-31.036,51.727l0,0L337.905,93.187z M182.722,186.297L182.722,186.297l0.001,31.036l20.691,20.689v41.382
	l-0.001-0.001v-41.378l-20.69-20.691V186.297z M275.832,538.045l-20.691-51.728L275.832,538.045l31.037,10.346L275.832,538.045z
	 M399.979,341.479h-41.382l-31.038-51.728h-72.418l-20.69-41.383l-31.037,31.038l-20.691,20.69l20.692-20.692l0,0l31.037-31.037
	l20.69,41.382h72.418l31.038,51.729L399.979,341.479L399.979,341.479z M513.783,134.568l20.689,31.036l0,0L513.783,134.568
	L513.783,134.568z M503.434,93.187L503.434,93.187l-41.381,10.345l0,0L503.434,93.187z M503.437,269.061l-72.419-31.037v0
	L503.437,269.061l41.381-10.346l31.037,20.69v0.001l-31.036-20.69L503.437,269.061z"/>
</svg>
