<?xml version="1.0" encoding="utf-8"?>
<!-- Generator: Adobe Illustrator 15.0.0, SVG Export Plug-In . SVG Version: 6.00 Build 0)  -->
<!DOCTYPE svg PUBLIC "-//W3C//DTD SVG 1.1//EN" "http://www.w3.org/Graphics/SVG/1.1/DTD/svg11.dtd">
<svg version="1.1" id="Capa_1" xmlns="http://www.w3.org/2000/svg" xmlns:xlink="http://www.w3.org/1999/xlink" x="0px" y="0px"
	 width="800px" height="600px" viewBox="0 0 800 600" enable-background="new 0 0 800 600" xml:space="preserve">
<g>
	<path fill="#03AA6F" d="M617.236,93.187l-31.037,20.69l-51.729-10.345l-31.037-10.345l-41.382,10.345l-31.037-10.345l20.69-41.382
		h41.383l40.555-20.277C564.919,46.994,593.214,67.871,617.236,93.187z"/>
	<path fill="#03AA6F" d="M379.288,51.804l-10.345,31.037l-31.037,10.345l-31.037,51.728l-51.728,31.037l-72.418,10.345v31.037
		l20.69,20.691v41.382l-31.035-20.692l-31.037-20.69l-18.001-54.107C154.324,110.08,213.553,51.71,287.833,21.802l29.381,19.657
		L379.288,51.804z"/>
	<polygon fill="#03AA6F" points="399.979,341.479 389.634,393.207 348.251,434.59 348.251,465.627 306.869,496.663 306.869,548.391 
		275.833,538.045 255.141,486.317 255.141,382.861 203.414,372.517 182.723,331.134 182.723,300.097 203.414,279.406 
		234.451,248.369 255.141,289.751 327.56,289.751 358.597,341.479 	"/>
	<path fill="#03AA6F" d="M661.722,153.5c56.477,100.756,50.042,224.996-16.553,319.368l-27.933-27.934v-41.382l-20.69-41.383
		l-20.691-41.383v-41.382l-31.037-20.69l-41.382,10.345l-72.419-31.037l-10.346-72.418l31.037-31.037h62.073l20.691,31.037
		l62.072,10.345l62.073-20.69L661.722,153.5z"/>
</g>
<path fill="#86DAF1" d="M462.053,103.532l41.383-10.345l31.037,10.345l51.728,10.345l31.037-20.69
	c17.328,18.136,32.278,38.402,44.485,60.314l-3.103,1.759l-62.073,20.69l-62.073-10.345l-20.69-31.037H451.71l-31.037,31.037
	l10.345,72.418l72.419,31.037l41.382-10.345l31.037,20.691v41.382l20.691,41.383l20.69,41.383v41.382l27.933,27.934
	c-95.541,135.382-282.745,167.671-418.116,72.129C112.083,463.847,68.952,313.701,123.339,183.917l18.001,54.106l31.037,20.691
	l31.037,20.69l-20.692,20.692v31.037l20.691,41.383l51.728,10.345v103.456l20.691,51.728l31.037,10.346v-51.728l41.382-31.037
	v-31.038l41.383-41.382l10.345-51.728h-41.382L327.56,289.75h-72.418l-20.69-41.382l-31.037,31.037v-41.382l-20.691-20.689v-31.037
	l72.418-10.346l51.728-31.037l31.037-51.728l31.037-10.346l10.346-31.037l-62.073-10.345L287.834,21.8
	c79.558-32.04,169.026-28.502,245.81,9.726L493.09,51.803h-41.383l-20.69,41.383L462.053,103.532z"/>
</svg>
